<?xml version="1.0" encoding="UTF-8" standalone="no"?>
<svg xmlns="http://www.w3.org/2000/svg" xmlns:xlink="http://www.w3.org/1999/xlink" viewBox="0 0 1920 1080" width="1920" height="1080" preserveAspectRatio="xMidYMid slice" style="width: 100%; height: 100%; transform: translate3d(0px, 0px, 0px); content-visibility: visible;"><defs><clipPath id="__lottie_element_2"><rect width="1920" height="1080" x="0" y="0"></rect></clipPath><clipPath id="__lottie_element_10"><path fill="#ffffff" clip-rule="nonzero" d=" M9.41860580444336,-15 C9.41860580444336,-15 7.212227821350098,-15 7.212227821350098,-15 C7.212227821350098,-15 7.212227821350098,11 7.212227821350098,11 C7.212227821350098,11 9.41860580444336,11 9.41860580444336,11 C9.41860580444336,11 9.41860580444336,-15 9.41860580444336,-15" fill-opacity="1"></path></clipPath><clipPath id="__lottie_element_13"><path fill="#ffffff" clip-rule="nonzero" d=" M-5.451776504516602,-19 C-5.451776504516602,-19 -6.533406734466553,-19 -6.533406734466553,-19 C-6.533406734466553,-19 -6.533406734466553,16 -6.533406734466553,16 C-6.533406734466553,16 -5.451776504516602,16 -5.451776504516602,16 C-5.451776504516602,16 -5.451776504516602,-19 -5.451776504516602,-19" fill-opacity="1"></path></clipPath><clipPath id="__lottie_element_16"><path fill="#ffffff" clip-rule="nonzero" d=" M-0.889727771282196,-11 C-0.889727771282196,-11 -3.7565135955810547,-11 -3.7565135955810547,-11 C-3.7565135955810547,-11 -3.7565135955810547,12 -3.7565135955810547,12 C-3.7565135955810547,12 -0.889727771282196,12 -0.889727771282196,12 C-0.889727771282196,12 -0.889727771282196,-11 -0.889727771282196,-11" fill-opacity="1"></path></clipPath><g id="__lottie_element_19"><g transform="matrix(0.6799978017807007,0,0,0.6799978017807007,491.2277526855469,436.58612060546875)" opacity="1" style="display: block;"><g opacity="1" transform="matrix(1,0,0,1,87.68900299072266,87.6780014038086)"><path fill="rgb(255,82,82)" fill-opacity="1" d=" M-87.43900299072266,81.47799682617188 C-87.43900299072266,84.76399993896484 -84.7760009765625,87.4280014038086 -81.48999786376953,87.4280014038086 C-81.48999786376953,87.4280014038086 19.486000061035156,87.4280014038086 19.486000061035156,87.4280014038086 C56.520999908447266,87.31300354003906 86.60900115966797,53.1349983215332 87.4229965209961,2.0989999771118164 C87.43399810791016,1.3930000066757202 87.43900299072266,0.6840000152587891 87.43900299072266,-0.028999999165534973 C87.43900299072266,-0.8659999966621399 87.43099975585938,-1.6990000009536743 87.41400146484375,-2.5269999504089355 C86.36599731445312,-53.41600036621094 53.297000885009766,-87.4280014038086 10.45199966430664,-87.4280014038086 C10.45199966430664,-87.4280014038086 -81.48999786376953,-87.4280014038086 -81.48999786376953,-87.4280014038086 C-84.7760009765625,-87.4280014038086 -87.43900299072266,-84.76399993896484 -87.43900299072266,-81.47799682617188"></path></g></g></g><filter id="__lottie_element_27"><feColorMatrix type="matrix" color-interpolation-filters="sRGB" values="0 0 0 0 0 0 0 0 0 0 0 0 0 0 0 0 0 0 1 0" result="filter_result_0"></feColorMatrix></filter><mask id="__lottie_element_19_1" mask-type="alpha"><use xlink:href="#__lottie_element_19"></use></mask><clipPath id="__lottie_element_32"><path fill="#ffffff" clip-rule="nonzero" d=" M1200.420654296875,-67.37200164794922 C1200.420654296875,-67.37200164794922 87.30397033691406,-67.37200164794922 87.30397033691406,-67.37200164794922 C87.30397033691406,-67.37200164794922 87.30397033691406,287.27899169921875 87.30397033691406,287.27899169921875 C87.30397033691406,287.27899169921875 1200.420654296875,287.27899169921875 1200.420654296875,287.27899169921875 C1200.420654296875,287.27899169921875 1200.420654296875,-67.37200164794922 1200.420654296875,-67.37200164794922" fill-opacity="1"></path></clipPath></defs><g clip-path="url(#__lottie_element_2)"><g clip-path="url(#__lottie_element_32)" style="display: block;" transform="matrix(0.8600000143051147,0,0,0.8600000143051147,442.8810119628906,435.94000244140625)" opacity="1"><g opacity="1" transform="matrix(1,0,0,1,1114.5999755859375,124.6500015258789)"><path fill="rgb(0,0,0)" fill-opacity="1" d=" M54.599998474121094,-14.949999809265137 C54.599998474121094,-14.949999809265137 54.599998474121094,63.75 54.599998474121094,63.75 C54.599998474121094,63.75 25.700000762939453,63.75 25.700000762939453,63.75 C25.700000762939453,63.75 25.700000762939453,-9.75 25.700000762939453,-9.75 C25.700000762939453,-27.649999618530273 18,-37.650001525878906 3,-37.650001525878906 C-12,-37.650001525878906 -21.899999618530273,-27.149999618530273 -24.700000762939453,-9.550000190734863 C-25.5,-5.349999904632568 -25.700000762939453,1.149999976158142 -25.700000762939453,14.850000381469727 C-25.700000762939453,14.850000381469727 -25.700000762939453,63.650001525878906 -25.700000762939453,63.650001525878906 C-25.700000762939453,63.650001525878906 -54.599998474121094,63.650001525878906 -54.599998474121094,63.650001525878906 C-54.599998474121094,63.650001525878906 -54.599998474121094,-61.349998474121094 -54.599998474121094,-61.349998474121094 C-54.599998474121094,-61.349998474121094 -29,-61.349998474121094 -29,-61.349998474121094 C-28.899999618530273,-60.25 -28.299999237060547,-49.04999923706055 -28.299999237060547,-48.349998474121094 C-28.299999237060547,-47.45000076293945 -27.200000762939453,-46.95000076293945 -26.5,-47.54999923706055 C-15.899999618530273,-55.95000076293945 -4.199999809265137,-63.75 12.100000381469727,-63.75 C38.900001525878906,-63.75 54.599998474121094,-45.650001525878906 54.599998474121094,-14.949999809265137z"></path></g><g opacity="1" transform="matrix(1,0,0,1,978.5999755859375,151.1999969482422)"><path fill="rgb(0,0,0)" fill-opacity="1" d=" M34.79999923706055,-87.80000305175781 C34.79999923706055,-87.80000305175781 33.900001525878906,-73.5 33.900001525878906,-73.5 C33.79999923706055,-72.5999984741211 32.70000076293945,-72.0999984741211 32.099998474121094,-72.69999694824219 C28.600000381469727,-76 15.699999809265137,-90.19999694824219 -6.199999809265137,-90.19999694824219 C-37.599998474121094,-90.19999694824219 -60.70000076293945,-63.099998474121094 -60.70000076293945,-26.299999237060547 C-60.70000076293945,11 -37.79999923706055,38.20000076293945 -6.199999809265137,38.20000076293945 C14.899999618530273,38.20000076293945 27.799999237060547,24.5 30.200000762939453,21.5 C30.899999618530273,20.700000762939453 32.20000076293945,21.200000762939453 32.20000076293945,22.200000762939453 C31.899999618530273,26 31.399999618530273,35.5 28.200000762939453,43.599998474121094 C24.200000762939453,53.79999923706055 15.199999809265137,63.29999923706055 -2.9000000953674316,63.29999923706055 C-17.799999237060547,63.29999923706055 -31,57.599998474121094 -43.5,45.400001525878906 C-43.5,45.400001525878906 -58.599998474121094,66.0999984741211 -58.599998474121094,66.0999984741211 C-44.900001525878906,81.5999984741211 -23.299999237060547,90.30000305175781 0.20000000298023224,90.30000305175781 C38,90.30000305175781 60.70000076293945,64.4000015258789 60.70000076293945,22.100000381469727 C60.70000076293945,22.100000381469727 60.70000076293945,-87.80000305175781 60.70000076293945,-87.80000305175781 C60.70000076293945,-87.80000305175781 34.79999923706055,-87.80000305175781 34.79999923706055,-87.80000305175781z M0,12 C-18.700000762939453,12 -31.899999618530273,-4.199999809265137 -31.899999618530273,-26.299999237060547 C-31.899999618530273,-48.400001525878906 -18.700000762939453,-64.19999694824219 0,-64.19999694824219 C18.700000762939453,-64.19999694824219 31.899999618530273,-48.5 31.899999618530273,-26.299999237060547 C31.799999237060547,-4.099999904632568 18.600000381469727,12 0,12z"></path></g><g opacity="1" transform="matrix(1,0,0,1,805.2000122070312,126)"><path fill="rgb(0,0,0)" fill-opacity="1" d=" M52.29999923706055,25.299999237060547 C52.29999923706055,49 32.400001525878906,64.9000015258789 3.200000047683716,64.9000015258789 C-19.700000762939453,64.9000015258789 -40.099998474121094,56 -52.29999923706055,43.29999923706055 C-52.29999923706055,43.29999923706055 -42.79999923706055,20.700000762939453 -42.79999923706055,20.700000762939453 C-33.599998474121094,29 -18.799999237060547,40.900001525878906 2.299999952316284,40.900001525878906 C17,40.900001525878906 25.5,34.400001525878906 25.5,26.200000762939453 C25.5,16.700000762939453 13.800000190734863,14.199999809265137 -0.20000000298023224,11.5 C-20.100000381469727,7.300000190734863 -46.5,0.5 -46.5,-26.600000381469727 C-46.5,-49.29999923706055 -28.100000381469727,-64.9000015258789 -0.8999999761581421,-64.9000015258789 C20,-64.9000015258789 38,-56.900001525878906 50.400001525878906,-46.5 C50.400001525878906,-46.5 36.20000076293945,-26.600000381469727 36.20000076293945,-26.600000381469727 C24.200000762939453,-36.099998474121094 11.600000381469727,-40.79999923706055 -0.8999999761581421,-40.79999923706055 C-13.399999618530273,-40.79999923706055 -19.600000381469727,-35.599998474121094 -19.600000381469727,-28.100000381469727 C-19.600000381469727,-17.600000381469727 -6.099999904632568,-14.899999618530273 3.799999952316284,-12.899999618530273 C28.700000762939453,-8.100000381469727 52.29999923706055,-0.6000000238418579 52.29999923706055,25.299999237060547z"></path></g><g opacity="1" transform="matrix(1,0,0,1,434.95001220703125,125.9000015258789)"><path fill="rgb(0,0,0)" fill-opacity="1" d=" M-0.05000000074505806,-65 C-35.349998474121094,-65 -60.75,-37.599998474121094 -60.75,0 C-60.75,37.599998474121094 -35.349998474121094,65 -0.05000000074505806,65 C35.25,65 60.75,37.599998474121094 60.75,0 C60.75,-37.599998474121094 35.349998474121094,-65 -0.05000000074505806,-65z M-0.05000000074505806,38.79999923706055 C-18.75,38.79999923706055 -31.950000762939453,22.899999618530273 -31.950000762939453,-0.10000000149011612 C-31.950000762939453,-23 -19.049999237060547,-39 -0.05000000074505806,-39 C18.850000381469727,-39 31.850000381469727,-23.100000381469727 31.850000381469727,-0.10000000149011612 C31.850000381469727,22.899999618530273 18.649999618530273,38.79999923706055 -0.05000000074505806,38.79999923706055z"></path></g><g opacity="1" transform="matrix(1,0,0,1,563.4500122070312,126)"><path fill="rgb(0,0,0)" fill-opacity="1" d=" M-57.54999923706055,-0.10000000149011612 C-57.54999923706055,-37.20000076293945 -32.150001525878906,-65.0999984741211 1.75,-65.0999984741211 C28.649999618530273,-65.0999984741211 48.349998474121094,-51.599998474121094 57.54999923706055,-26.200000762939453 C57.54999923706055,-26.200000762939453 31.950000762939453,-16.5 31.950000762939453,-16.5 C24.950000762939453,-32.20000076293945 15.75,-38.900001525878906 1.850000023841858,-38.900001525878906 C-15.550000190734863,-38.900001525878906 -28.549999237060547,-22.5 -28.549999237060547,0 C-28.549999237060547,22.399999618530273 -15.649999618530273,38.900001525878906 1.850000023841858,38.900001525878906 C15.850000381469727,38.900001525878906 24.950000762939453,32.20000076293945 31.950000762939453,16.5 C31.950000762939453,16.5 57.54999923706055,26.200000762939453 57.54999923706055,26.200000762939453 C48.349998474121094,51.599998474121094 28.649999618530273,65.0999984741211 1.75,65.0999984741211 C-32.150001525878906,64.9000015258789 -57.54999923706055,37 -57.54999923706055,-0.10000000149011612z"></path></g><g opacity="1" transform="matrix(1,0,0,1,298.54998779296875,98.0999984741211)"><path fill="rgb(0,0,0)" fill-opacity="1" d=" M52.849998474121094,-92.80000305175781 C52.349998474121094,-92.80000305175781 51.75,-92.69999694824219 51.25,-92.4000015258789 C51.25,-92.4000015258789 32.45000076293945,-82.4000015258789 32.45000076293945,-82.4000015258789 C32.04999923706055,-82.19999694824219 31.850000381469727,-81.80000305175781 31.850000381469727,-81.4000015258789 C31.850000381469727,-81.4000015258789 31.850000381469727,-21.899999618530273 31.850000381469727,-21.899999618530273 C31.850000381469727,-20.899999618530273 30.649999618530273,-20.5 29.950000762939453,-21.100000381469727 C27.149999618530273,-23.5 20.649999618530273,-29.600000381469727 11.649999618530273,-33.79999923706055 C6.949999809265137,-36 0.05000000074505806,-37.20000076293945 -6.25,-37.20000076293945 C-37.849998474121094,-37.20000076293945 -60.75,-9.800000190734863 -60.75,27.799999237060547 C-60.75,65.4000015258789 -37.849998474121094,92.80000305175781 -6.25,92.80000305175781 C10.350000381469727,92.80000305175781 22.850000381469727,84.0999984741211 30.450000762939453,76.30000305175781 C30.950000762939453,75.80000305175781 31.25,75.5 31.75,75 C32.45000076293945,74.30000305175781 33.650001525878906,74.69999694824219 33.650001525878906,75.69999694824219 C33.650001525878906,75.69999694824219 34.650001525878906,90.30000305175781 34.650001525878906,90.30000305175781 C34.650001525878906,90.30000305175781 60.75,90.30000305175781 60.75,90.30000305175781 C60.75,90.30000305175781 60.75,-92 60.75,-92 C60.75,-92.4000015258789 60.45000076293945,-92.80000305175781 59.95000076293945,-92.80000305175781 C59.95000076293945,-92.80000305175781 52.849998474121094,-92.80000305175781 52.849998474121094,-92.80000305175781z M-0.05000000074505806,66.5999984741211 C-18.950000762939453,66.5999984741211 -31.950000762939453,50.70000076293945 -31.950000762939453,27.700000762939453 C-31.950000762939453,4.699999809265137 -18.649999618530273,-11.100000381469727 -0.05000000074505806,-11.100000381469727 C18.649999618530273,-11.100000381469727 31.850000381469727,4.800000190734863 31.850000381469727,27.799999237060547 C31.850000381469727,50.70000076293945 18.950000762939453,66.5999984741211 -0.05000000074505806,66.5999984741211z"></path></g><g opacity="1" transform="matrix(1,0,0,1,887.25,125.8499984741211)"><path fill="rgb(0,0,0)" fill-opacity="1" d=" M4.25,-62.04999923706055 C4.25,-62.04999923706055 -13.850000381469727,-52.45000076293945 -13.850000381469727,-52.45000076293945 C-14.25,-52.25 -14.449999809265137,-51.849998474121094 -14.449999809265137,-51.45000076293945 C-14.449999809265137,-51.45000076293945 -14.449999809265137,62.54999923706055 -14.449999809265137,62.54999923706055 C-14.449999809265137,62.54999923706055 14.449999809265137,62.54999923706055 14.449999809265137,62.54999923706055 C14.449999809265137,62.54999923706055 14.449999809265137,-61.75 14.449999809265137,-61.75 C14.449999809265137,-62.150001525878906 14.149999618530273,-62.54999923706055 13.649999618530273,-62.54999923706055 C13.649999618530273,-62.54999923706055 5.849999904632568,-62.54999923706055 5.849999904632568,-62.54999923706055 C5.25,-62.45000076293945 4.75,-62.349998474121094 4.25,-62.04999923706055z"></path></g><g opacity="1" transform="matrix(1,0,0,1,887.2000122070312,25.700000762939453)"><path fill="rgb(0,0,0)" fill-opacity="1" d=" M0,17.399999618530273 C9.600000381469727,17.399999618530273 17.399999618530273,9.600000381469727 17.399999618530273,0 C17.399999618530273,-9.600000381469727 9.600000381469727,-17.399999618530273 0,-17.399999618530273 C-9.600000381469727,-17.399999618530273 -17.399999618530273,-9.600000381469727 -17.399999618530273,0 C-17.399999618530273,9.600000381469727 -9.600000381469727,17.399999618530273 0,17.399999618530273z"></path></g><g opacity="1" transform="matrix(1,0,0,1,688,127.05000305175781)"><path fill="rgb(0,0,0)" fill-opacity="1" d=" M54.5,-63.75 C54.5,-63.75 54.5,4.150000095367432 54.5,4.150000095367432 C54.5,55.650001525878906 25.700000762939453,63.75 0,63.75 C-25.700000762939453,63.75 -54.5,55.54999923706055 -54.5,4.150000095367432 C-54.5,4.150000095367432 -54.5,-63.75 -54.5,-63.75 C-54.5,-63.75 -25.700000762939453,-63.75 -25.700000762939453,-63.75 C-25.700000762939453,-63.75 -25.700000762939453,11.350000381469727 -25.700000762939453,11.350000381469727 C-25.700000762939453,18.649999618530273 -23.899999618530273,37.650001525878906 0,37.650001525878906 C23.899999618530273,37.650001525878906 25.700000762939453,18.75 25.700000762939453,11.350000381469727 C25.700000762939453,11.350000381469727 25.700000762939453,-63.75 25.700000762939453,-63.75 C25.700000762939453,-63.75 54.5,-63.75 54.5,-63.75z"></path></g><g opacity="1" transform="matrix(1,0,0,1,1187.75,181.9499969482422)"><path fill="rgb(0,0,0)" fill-opacity="1" d=" M-12.25,-6.349999904632568 C-12.25,-6.349999904632568 -12.25,-4.550000190734863 -12.25,-4.550000190734863 C-12.25,-4.550000190734863 -8.14900016784668,-4.550000190734863 -8.14900016784668,-4.550000190734863 C-8.14900016784668,-4.550000190734863 -8.14900016784668,6.349999904632568 -8.14900016784668,6.349999904632568 C-8.14900016784668,6.349999904632568 -6.150000095367432,6.349999904632568 -6.150000095367432,6.349999904632568 C-6.150000095367432,6.349999904632568 -6.150000095367432,-4.550000190734863 -6.150000095367432,-4.550000190734863 C-6.150000095367432,-4.550000190734863 -2.049999952316284,-4.550000190734863 -2.049999952316284,-4.550000190734863 C-2.049999952316284,-4.550000190734863 -2.049999952316284,-6.349999904632568 -2.049999952316284,-6.349999904632568 C-2.049999952316284,-6.349999904632568 -12.25,-6.349999904632568 -12.25,-6.349999904632568z M9.550000190734863,-6.349999904632568 C9.550000190734863,-6.349999904632568 5.75,0.949999988079071 5.75,0.949999988079071 C5.75,0.949999988079071 1.9500000476837158,-6.349999904632568 1.9500000476837158,-6.349999904632568 C1.9500000476837158,-6.349999904632568 -0.6499999761581421,-6.349999904632568 -0.6499999761581421,-6.349999904632568 C-0.6499999761581421,-6.349999904632568 -0.6499999761581421,6.349999904632568 -0.6499999761581421,6.349999904632568 C-0.6499999761581421,6.349999904632568 1.350000023841858,6.349999904632568 1.350000023841858,6.349999904632568 C1.350000023841858,6.349999904632568 1.350000023841858,-3.549999952316284 1.350000023841858,-3.549999952316284 C1.350000023841858,-3.549999952316284 5.250999927520752,3.8499999046325684 5.250999927520752,3.8499999046325684 C5.250999927520752,3.8499999046325684 6.35099983215332,3.8499999046325684 6.35099983215332,3.8499999046325684 C6.35099983215332,3.8499999046325684 10.25,-3.6500000953674316 10.25,-3.6500000953674316 C10.25,-3.6500000953674316 10.25,6.349999904632568 10.25,6.349999904632568 C10.25,6.349999904632568 12.25,6.349999904632568 12.25,6.349999904632568 C12.25,6.349999904632568 12.149999618530273,-6.349999904632568 12.149999618530273,-6.349999904632568 C12.149999618530273,-6.349999904632568 9.550000190734863,-6.349999904632568 9.550000190734863,-6.349999904632568z"></path></g></g><g transform="matrix(0.6799978017807007,0,0,0.6799978017807007,491.2277526855469,436.58612060546875)" opacity="1" style="display: block;"><g opacity="1" transform="matrix(1,0,0,1,87.68900299072266,87.6780014038086)"><path fill="rgb(255,82,82)" fill-opacity="1" d=" M-87.43900299072266,81.47799682617188 C-87.43900299072266,84.76399993896484 -84.7760009765625,87.4280014038086 -81.48999786376953,87.4280014038086 C-81.48999786376953,87.4280014038086 19.486000061035156,87.4280014038086 19.486000061035156,87.4280014038086 C56.520999908447266,87.31300354003906 86.60900115966797,53.1349983215332 87.4229965209961,2.0989999771118164 C87.43399810791016,1.3930000066757202 87.43900299072266,0.6840000152587891 87.43900299072266,-0.028999999165534973 C87.43900299072266,-0.8659999966621399 87.43099975585938,-1.6990000009536743 87.41400146484375,-2.5269999504089355 C86.36599731445312,-53.41600036621094 53.297000885009766,-87.4280014038086 10.45199966430664,-87.4280014038086 C10.45199966430664,-87.4280014038086 -81.48999786376953,-87.4280014038086 -81.48999786376953,-87.4280014038086 C-84.7760009765625,-87.4280014038086 -87.43900299072266,-84.76399993896484 -87.43900299072266,-81.47799682617188"></path></g></g><g transform="matrix(0.6799978017807007,0,0,0.6799978017807007,445.0352478027344,482.778564453125)" opacity="1" style="display: block;"><g opacity="1" transform="matrix(1,0,0,1,87.6780014038086,87.69599914550781)"><path fill="rgb(76,0,255)" fill-opacity="1" d=" M87.427001953125,-46.21699905395508 C87.427001953125,-48.111000061035156 86.67500305175781,-49.926998138427734 85.33599853515625,-51.26599884033203 C85.33599853515625,-51.26599884033203 51.24700164794922,-85.3550033569336 51.24700164794922,-85.3550033569336 C49.90800094604492,-86.69400024414062 48.09199905395508,-87.44599914550781 46.19900131225586,-87.44599914550781 C46.19900131225586,-87.44599914550781 -81.47799682617188,-87.44599914550781 -81.47799682617188,-87.44599914550781 C-84.76399993896484,-87.44599914550781 -87.4280014038086,-84.78199768066406 -87.4280014038086,-81.49600219726562 C-87.4280014038086,-81.49600219726562 -87.4280014038086,81.49600219726562 -87.4280014038086,81.49600219726562 C-87.4280014038086,84.78199768066406 -84.76399993896484,87.44599914550781 -81.47799682617188,87.44599914550781 C-81.47799682617188,87.44599914550781 81.47799682617188,87.44599914550781 81.47799682617188,87.44599914550781 C84.76399993896484,87.44599914550781 87.4280014038086,84.78199768066406 87.4280014038086,81.49600219726562 C87.4280014038086,81.49600219726562 87.427001953125,-46.21699905395508 87.427001953125,-46.21699905395508z"></path></g></g><g mask="url(#__lottie_element_19_1)" style="display: block;"><g filter="url(#__lottie_element_27)" transform="matrix(0.6799978017807007,0,0,0.6799978017807007,445.0352478027344,482.778564453125)" opacity="1"><g opacity="1" transform="matrix(1,0,0,1,87.6780014038086,87.69599914550781)"><path fill="rgb(76,0,255)" fill-opacity="1" d=" M87.427001953125,-46.21699905395508 C87.427001953125,-48.111000061035156 86.67500305175781,-49.926998138427734 85.33599853515625,-51.26599884033203 C85.33599853515625,-51.26599884033203 51.24700164794922,-85.3550033569336 51.24700164794922,-85.3550033569336 C49.90800094604492,-86.69400024414062 48.09199905395508,-87.44599914550781 46.19900131225586,-87.44599914550781 C46.19900131225586,-87.44599914550781 -81.47799682617188,-87.44599914550781 -81.47799682617188,-87.44599914550781 C-84.76399993896484,-87.44599914550781 -87.4280014038086,-84.78199768066406 -87.4280014038086,-81.49600219726562 C-87.4280014038086,-81.49600219726562 -87.4280014038086,81.49600219726562 -87.4280014038086,81.49600219726562 C-87.4280014038086,84.78199768066406 -84.76399993896484,87.44599914550781 -81.47799682617188,87.44599914550781 C-81.47799682617188,87.44599914550781 81.47799682617188,87.44599914550781 81.47799682617188,87.44599914550781 C84.76399993896484,87.44599914550781 87.4280014038086,84.78199768066406 87.4280014038086,81.49600219726562 C87.4280014038086,81.49600219726562 87.427001953125,-46.21699905395508 87.427001953125,-46.21699905395508z"></path></g></g></g><g clip-path="url(#__lottie_element_16)" style="display: none;" transform="matrix(1,0,0,1,1052.3299560546875,659)" opacity="1"><g opacity="1" transform="matrix(1,0,0,1,0,0)"><path stroke-linecap="butt" stroke-linejoin="miter" fill-opacity="0" stroke-miterlimit="4" stroke-dasharray=" 8 8" stroke-dashoffset="0" stroke="rgb(136,136,136)" stroke-opacity="1" stroke-width="1.97" d=" M395.6700134277344,0 C395.6700134277344,0 -395.6700134277344,0 -395.6700134277344,0"></path></g></g><g clip-path="url(#__lottie_element_13)" style="display: none;" transform="matrix(1,0,0,1,946,399)" opacity="1"><g opacity="1" transform="matrix(1,0,0,1,0,0)"><path stroke-linecap="butt" stroke-linejoin="miter" fill-opacity="0" stroke-miterlimit="4" stroke-dasharray=" 8 8" stroke-dashoffset="0" stroke="rgb(136,136,136)" stroke-opacity="1" stroke-width="1.97" d=" M502,0 C502,0 -502,0 -502,0"></path></g></g><g clip-path="url(#__lottie_element_10)" style="display: none;" transform="matrix(1,0,0,1,529.1740112304688,659)" opacity="1"><g opacity="1" transform="matrix(1,0,0,1,0,0)"><path stroke-linecap="butt" stroke-linejoin="miter" fill-opacity="0" stroke-miterlimit="4" stroke-dasharray=" 8 8" stroke-dashoffset="0" stroke="rgb(136,136,136)" stroke-opacity="1" stroke-width="2" d=" M85.17400360107422,0 C85.17400360107422,0 -85.17400360107422,0 -85.17400360107422,0"></path></g></g><g transform="matrix(1,0,0,1,1052,689)" opacity="0.06743073684210506" style="display: none;"><g opacity="1" transform="matrix(1,0,0,1,0,0)"><path fill="rgb(136,136,136)" fill-opacity="1" d=" M37.1879997253418,0.699999988079071 C37.1879997253418,0.699999988079071 39.1619987487793,0.699999988079071 39.1619987487793,0.699999988079071 C39.1619987487793,0.699999988079071 39.1619987487793,-2.140000104904175 39.1619987487793,-2.140000104904175 C39.1619987487793,-2.140000104904175 40.874000549316406,-3.953000068664551 40.874000549316406,-3.953000068664551 C40.874000549316406,-3.953000068664551 44.117000579833984,0.699999988079071 44.117000579833984,0.699999988079071 C44.117000579833984,0.699999988079071 46.45399856567383,0.699999988079071 46.45399856567383,0.699999988079071 C46.45399856567383,0.699999988079071 42.16299819946289,-5.322999954223633 42.16299819946289,-5.322999954223633 C42.16299819946289,-5.322999954223633 45.93000030517578,-9.310999870300293 45.93000030517578,-9.310999870300293 C45.93000030517578,-9.310999870300293 43.43199920654297,-9.310999870300293 43.43199920654297,-9.310999870300293 C43.43199920654297,-9.310999870300293 39.1619987487793,-4.6579999923706055 39.1619987487793,-4.6579999923706055 C39.1619987487793,-4.6579999923706055 39.1619987487793,-14.104000091552734 39.1619987487793,-14.104000091552734 C39.1619987487793,-14.104000091552734 37.1879997253418,-14.104000091552734 37.1879997253418,-14.104000091552734 C37.1879997253418,-14.104000091552734 37.1879997253418,0.699999988079071 37.1879997253418,0.699999988079071z"></path></g><g opacity="1" transform="matrix(1,0,0,1,0,0)"><path fill="rgb(136,136,136)" fill-opacity="1" d=" M29.92799949645996,0.699999988079071 C29.92799949645996,0.699999988079071 31.902000427246094,0.699999988079071 31.902000427246094,0.699999988079071 C31.902000427246094,0.699999988079071 31.902000427246094,-3.187999963760376 31.902000427246094,-3.187999963760376 C31.902000427246094,-4.046999931335449 31.929000854492188,-4.644000053405762 31.982999801635742,-4.980000019073486 C32.13100051879883,-5.853000164031982 32.42300033569336,-6.5269999504089355 32.85900115966797,-7.004000186920166 C33.29499816894531,-7.480999946594238 33.84299850463867,-7.718999862670898 34.500999450683594,-7.718999862670898 C34.78300094604492,-7.718999862670898 35.077999114990234,-7.679999828338623 35.387001037597656,-7.598999977111816 C35.387001037597656,-7.598999977111816 35.507999420166016,-9.45199966430664 35.507999420166016,-9.45199966430664 C35.292999267578125,-9.505999565124512 35.05799865722656,-9.531999588012695 34.803001403808594,-9.531999588012695 C34.10499954223633,-9.531999588012695 33.4900016784668,-9.340999603271484 32.959999084472656,-8.958000183105469 C32.43000030517578,-8.574999809265137 32.04399871826172,-8.041999816894531 31.802000045776367,-7.35699987411499 C31.802000045776367,-7.35699987411499 31.781999588012695,-7.35699987411499 31.781999588012695,-7.35699987411499 C31.781999588012695,-7.35699987411499 31.701000213623047,-9.310999870300293 31.701000213623047,-9.310999870300293 C31.701000213623047,-9.310999870300293 29.92799949645996,-9.310999870300293 29.92799949645996,-9.310999870300293 C29.92799949645996,-9.310999870300293 29.92799949645996,0.699999988079071 29.92799949645996,0.699999988079071z"></path></g><g opacity="1" transform="matrix(1,0,0,1,0,0)"><path fill="rgb(136,136,136)" fill-opacity="1" d=" M19.81999969482422,-4.315999984741211 C19.81999969482422,-5.309999942779541 20.089000701904297,-6.122000217437744 20.625999450683594,-6.752999782562256 C21.163000106811523,-7.383999824523926 21.847000122070312,-7.698999881744385 22.68000030517578,-7.698999881744385 C23.51300048828125,-7.698999881744385 24.19499969482422,-7.38100004196167 24.725000381469727,-6.743000030517578 C25.2549991607666,-6.105000019073486 25.520000457763672,-5.296000003814697 25.520000457763672,-4.315999984741211 C25.520000457763672,-3.322000026702881 25.2549991607666,-2.50600004196167 24.725000381469727,-1.8680000305175781 C24.19499969482422,-1.2300000190734863 23.51300048828125,-0.9120000004768372 22.68000030517578,-0.9120000004768372 C21.847000122070312,-0.9120000004768372 21.163000106811523,-1.2300000190734863 20.625999450683594,-1.8680000305175781 C20.089000701904297,-2.50600004196167 19.81999969482422,-3.322000026702881 19.81999969482422,-4.315999984741211z M17.84600067138672,-4.315999984741211 C17.84600067138672,-2.7990000247955322 18.261999130249023,-1.5490000247955322 19.094999313354492,-0.5690000057220459 C19.92799949645996,0.41100001335144043 20.981000900268555,0.9010000228881836 22.256999969482422,0.9010000228881836 C23.68000030517578,0.9010000228881836 24.795000076293945,0.30399999022483826 25.60099983215332,-0.890999972820282 C25.60099983215332,-0.890999972820282 25.70199966430664,0.699999988079071 25.70199966430664,0.699999988079071 C25.70199966430664,0.699999988079071 27.513999938964844,0.699999988079071 27.513999938964844,0.699999988079071 C27.513999938964844,0.699999988079071 27.513999938964844,-9.310999870300293 27.513999938964844,-9.310999870300293 C27.513999938964844,-9.310999870300293 25.520000457763672,-9.310999870300293 25.520000457763672,-9.310999870300293 C25.520000457763672,-9.310999870300293 25.520000457763672,-7.840000152587891 25.520000457763672,-7.840000152587891 C24.687000274658203,-8.954999923706055 23.600000381469727,-9.51200008392334 22.256999969482422,-9.51200008392334 C20.981000900268555,-9.51200008392334 19.92799949645996,-9.022000312805176 19.094999313354492,-8.041999816894531 C18.261999130249023,-7.061999797821045 17.84600067138672,-5.820000171661377 17.84600067138672,-4.315999984741211z"></path></g><g opacity="1" transform="matrix(1,0,0,1,0,0)"><path fill="rgb(136,136,136)" fill-opacity="1" d=" M1.8279999494552612,0.699999988079071 C1.8279999494552612,0.699999988079071 3.802000045776367,0.699999988079071 3.802000045776367,0.699999988079071 C3.802000045776367,0.699999988079071 3.802000045776367,-3.4700000286102295 3.802000045776367,-3.4700000286102295 C3.802000045776367,-4.315999984741211 3.8289999961853027,-4.926000118255615 3.882999897003174,-5.302000045776367 C4.084000110626221,-6.900000095367432 4.829999923706055,-7.698999881744385 6.11899995803833,-7.698999881744385 C6.683000087738037,-7.698999881744385 7.11899995803833,-7.504000186920166 7.427999973297119,-7.114999771118164 C7.736999988555908,-6.72599983215332 7.890999794006348,-6.176000118255615 7.890999794006348,-5.464000225067139 C7.890999794006348,-5.464000225067139 7.890999794006348,0.699999988079071 7.890999794006348,0.699999988079071 C7.890999794006348,0.699999988079071 9.864999771118164,0.699999988079071 9.864999771118164,0.699999988079071 C9.864999771118164,0.699999988079071 9.864999771118164,-3.4700000286102295 9.864999771118164,-3.4700000286102295 C9.864999771118164,-4.276000022888184 9.885000228881836,-4.886000156402588 9.925000190734863,-5.302000045776367 C10.031999588012695,-6.066999912261963 10.277999877929688,-6.658999919891357 10.66100025177002,-7.074999809265137 C11.043999671936035,-7.491000175476074 11.543000221252441,-7.698999881744385 12.16100025177002,-7.698999881744385 C12.73799991607666,-7.698999881744385 13.180999755859375,-7.504000186920166 13.489999771118164,-7.114999771118164 C13.798999786376953,-6.72599983215332 13.954000473022461,-6.176000118255615 13.954000473022461,-5.464000225067139 C13.954000473022461,-5.464000225067139 13.954000473022461,0.699999988079071 13.954000473022461,0.699999988079071 C13.954000473022461,0.699999988079071 15.928000450134277,0.699999988079071 15.928000450134277,0.699999988079071 C15.928000450134277,0.699999988079071 15.928000450134277,-5.464000225067139 15.928000450134277,-5.464000225067139 C15.928000450134277,-6.739999771118164 15.638999938964844,-7.732999801635742 15.062000274658203,-8.444999694824219 C14.484999656677246,-9.156999588012695 13.685999870300293,-9.51200008392334 12.664999961853027,-9.51200008392334 C11.21500015258789,-9.51200008392334 10.147000312805176,-8.894000053405762 9.461999893188477,-7.658999919891357 C8.937999725341797,-8.894000053405762 8.005000114440918,-9.51200008392334 6.6620001792907715,-9.51200008392334 C5.991000175476074,-9.51200008392334 5.389999866485596,-9.357999801635742 4.860000133514404,-9.048999786376953 C4.329999923706055,-8.739999771118164 3.930000066757202,-8.317000389099121 3.6610000133514404,-7.78000020980835 C3.6610000133514404,-7.78000020980835 3.6010000705718994,-9.310999870300293 3.6010000705718994,-9.310999870300293 C3.6010000705718994,-9.310999870300293 1.8279999494552612,-9.310999870300293 1.8279999494552612,-9.310999870300293 C1.8279999494552612,-9.310999870300293 1.8279999494552612,0.699999988079071 1.8279999494552612,0.699999988079071z"></path></g><g opacity="1" transform="matrix(1,0,0,1,0,0)"><path fill="rgb(136,136,136)" fill-opacity="1" d=" M-8.319999694824219,-4.295000076293945 C-8.319999694824219,-5.302000045776367 -8.053999900817871,-6.122000217437744 -7.52400016784668,-6.752999782562256 C-6.99399995803833,-7.383999824523926 -6.306000232696533,-7.698999881744385 -5.460000038146973,-7.698999881744385 C-4.626999855041504,-7.698999881744385 -3.944999933242798,-7.38100004196167 -3.4149999618530273,-6.743000030517578 C-2.884999990463257,-6.105000019073486 -2.619999885559082,-5.289000034332275 -2.619999885559082,-4.295000076293945 C-2.619999885559082,-3.3010001182556152 -2.884999990463257,-2.489000082015991 -3.4149999618530273,-1.8580000400543213 C-3.944999933242798,-1.2269999980926514 -4.626999855041504,-0.9120000004768372 -5.460000038146973,-0.9120000004768372 C-6.306000232696533,-0.9120000004768372 -6.99399995803833,-1.2269999980926514 -7.52400016784668,-1.8580000400543213 C-8.053999900817871,-2.489000082015991 -8.319999694824219,-3.3010001182556152 -8.319999694824219,-4.295000076293945z M-10.293999671936035,-4.295000076293945 C-10.293999671936035,-2.7909998893737793 -9.878000259399414,-1.5490000247955322 -9.045000076293945,-0.5690000057220459 C-8.211999893188477,0.41100001335144043 -7.158999919891357,0.9010000228881836 -5.882999897003174,0.9010000228881836 C-4.4730000495910645,0.9010000228881836 -3.3580000400543213,0.3109999895095825 -2.5390000343322754,-0.8709999918937683 C-2.5390000343322754,-0.8709999918937683 -2.437999963760376,0.699999988079071 -2.437999963760376,0.699999988079071 C-2.437999963760376,0.699999988079071 -0.6259999871253967,0.699999988079071 -0.6259999871253967,0.699999988079071 C-0.6259999871253967,0.699999988079071 -0.6259999871253967,-14.104000091552734 -0.6259999871253967,-14.104000091552734 C-0.6259999871253967,-14.104000091552734 -2.619999885559082,-14.104000091552734 -2.619999885559082,-14.104000091552734 C-2.619999885559082,-14.104000091552734 -2.619999885559082,-7.840000152587891 -2.619999885559082,-7.840000152587891 C-3.438999891281128,-8.954999923706055 -4.5269999504089355,-9.51200008392334 -5.882999897003174,-9.51200008392334 C-7.158999919891357,-9.51200008392334 -8.211999893188477,-9.022000312805176 -9.045000076293945,-8.041999816894531 C-9.878000259399414,-7.061999797821045 -10.293999671936035,-5.811999797821045 -10.293999671936035,-4.295000076293945z"></path></g><g opacity="1" transform="matrix(1,0,0,1,0,0)"><path fill="rgb(136,136,136)" fill-opacity="1" d=" M-16.672000885009766,0.699999988079071 C-16.672000885009766,0.699999988079071 -14.697999954223633,0.699999988079071 -14.697999954223633,0.699999988079071 C-14.697999954223633,0.699999988079071 -14.697999954223633,-3.187999963760376 -14.697999954223633,-3.187999963760376 C-14.697999954223633,-4.046999931335449 -14.670999526977539,-4.644000053405762 -14.616999626159668,-4.980000019073486 C-14.468999862670898,-5.853000164031982 -14.177000045776367,-6.5269999504089355 -13.741000175476074,-7.004000186920166 C-13.305000305175781,-7.480999946594238 -12.756999969482422,-7.718999862670898 -12.098999977111816,-7.718999862670898 C-11.817000389099121,-7.718999862670898 -11.522000312805176,-7.679999828338623 -11.213000297546387,-7.598999977111816 C-11.213000297546387,-7.598999977111816 -11.092000007629395,-9.45199966430664 -11.092000007629395,-9.45199966430664 C-11.307000160217285,-9.505999565124512 -11.541999816894531,-9.531999588012695 -11.79699993133545,-9.531999588012695 C-12.494999885559082,-9.531999588012695 -13.109999656677246,-9.340999603271484 -13.640000343322754,-8.958000183105469 C-14.170000076293945,-8.574999809265137 -14.555999755859375,-8.041999816894531 -14.79800033569336,-7.35699987411499 C-14.79800033569336,-7.35699987411499 -14.817999839782715,-7.35699987411499 -14.817999839782715,-7.35699987411499 C-14.817999839782715,-7.35699987411499 -14.89900016784668,-9.310999870300293 -14.89900016784668,-9.310999870300293 C-14.89900016784668,-9.310999870300293 -16.672000885009766,-9.310999870300293 -16.672000885009766,-9.310999870300293 C-16.672000885009766,-9.310999870300293 -16.672000885009766,0.699999988079071 -16.672000885009766,0.699999988079071z"></path></g><g opacity="1" transform="matrix(1,0,0,1,0,0)"><path fill="rgb(136,136,136)" fill-opacity="1" d=" M-26.280000686645508,-4.295000076293945 C-26.280000686645508,-5.302000045776367 -26.013999938964844,-6.122000217437744 -25.483999252319336,-6.752999782562256 C-24.95400047302246,-7.383999824523926 -24.266000747680664,-7.698999881744385 -23.420000076293945,-7.698999881744385 C-22.586999893188477,-7.698999881744385 -21.905000686645508,-7.383999824523926 -21.375,-6.752999782562256 C-20.844999313354492,-6.122000217437744 -20.579999923706055,-5.302000045776367 -20.579999923706055,-4.295000076293945 C-20.579999923706055,-3.3010001182556152 -20.844999313354492,-2.489000082015991 -21.375,-1.8580000400543213 C-21.905000686645508,-1.2269999980926514 -22.586999893188477,-0.9120000004768372 -23.420000076293945,-0.9120000004768372 C-24.253000259399414,-0.9120000004768372 -24.937000274658203,-1.2269999980926514 -25.474000930786133,-1.8580000400543213 C-26.01099967956543,-2.489000082015991 -26.280000686645508,-3.3010001182556152 -26.280000686645508,-4.295000076293945z M-28.253999710083008,-4.295000076293945 C-28.253999710083008,-2.7780001163482666 -27.799999237060547,-1.5329999923706055 -26.893999099731445,-0.5590000152587891 C-25.988000869750977,0.41499999165534973 -24.829999923706055,0.9010000228881836 -23.420000076293945,0.9010000228881836 C-22.02400016784668,0.9010000228881836 -20.868000030517578,0.41100001335144043 -19.954999923706055,-0.5690000057220459 C-19.04199981689453,-1.5490000247955322 -18.586000442504883,-2.7909998893737793 -18.586000442504883,-4.295000076293945 C-18.586000442504883,-5.811999797821045 -19.04199981689453,-7.061999797821045 -19.954999923706055,-8.041999816894531 C-20.868000030517578,-9.022000312805176 -22.02400016784668,-9.51200008392334 -23.420000076293945,-9.51200008392334 C-24.829999923706055,-9.51200008392334 -25.988000869750977,-9.022000312805176 -26.893999099731445,-8.041999816894531 C-27.799999237060547,-7.061999797821045 -28.253999710083008,-5.811999797821045 -28.253999710083008,-4.295000076293945z"></path></g><g opacity="1" transform="matrix(1,0,0,1,0,0)"><path fill="rgb(136,136,136)" fill-opacity="1" d=" M-46.45600128173828,-13.70199966430664 C-46.45600128173828,-13.70199966430664 -42.85100173950195,0.699999988079071 -42.85100173950195,0.699999988079071 C-42.85100173950195,0.699999988079071 -40.69599914550781,0.699999988079071 -40.69599914550781,0.699999988079071 C-40.69599914550781,0.699999988079071 -37.391998291015625,-10.600000381469727 -37.391998291015625,-10.600000381469727 C-37.391998291015625,-10.600000381469727 -34.069000244140625,0.699999988079071 -34.069000244140625,0.699999988079071 C-34.069000244140625,0.699999988079071 -31.913999557495117,0.699999988079071 -31.913999557495117,0.699999988079071 C-31.913999557495117,0.699999988079071 -28.30900001525879,-13.70199966430664 -28.30900001525879,-13.70199966430664 C-28.30900001525879,-13.70199966430664 -30.464000701904297,-13.70199966430664 -30.464000701904297,-13.70199966430664 C-30.464000701904297,-13.70199966430664 -33.10200119018555,-2.5230000019073486 -33.10200119018555,-2.5230000019073486 C-33.10200119018555,-2.5230000019073486 -36.3849983215332,-13.70199966430664 -36.3849983215332,-13.70199966430664 C-36.3849983215332,-13.70199966430664 -38.400001525878906,-13.70199966430664 -38.400001525878906,-13.70199966430664 C-38.400001525878906,-13.70199966430664 -41.6619987487793,-2.5230000019073486 -41.6619987487793,-2.5230000019073486 C-41.6619987487793,-2.5230000019073486 -44.32099914550781,-13.70199966430664 -44.32099914550781,-13.70199966430664 C-44.32099914550781,-13.70199966430664 -46.45600128173828,-13.70199966430664 -46.45600128173828,-13.70199966430664z"></path></g></g><g transform="matrix(1,0,0,1,526.93798828125,689)" opacity="0.06743073684210506" style="display: none;"><g opacity="1" transform="matrix(1,0,0,1,0,0)"><path fill="rgb(136,136,136)" fill-opacity="1" d=" M38.46900177001953,0.699999988079071 C38.46900177001953,0.699999988079071 40.44200134277344,0.699999988079071 40.44200134277344,0.699999988079071 C40.44200134277344,0.699999988079071 40.44200134277344,-3.247999906539917 40.44200134277344,-3.247999906539917 C40.44200134277344,-4.228000164031982 40.46900177001953,-4.886000156402588 40.52299880981445,-5.2220001220703125 C40.67100143432617,-6.000999927520752 40.965999603271484,-6.609000205993652 41.409000396728516,-7.045000076293945 C41.85200119018555,-7.480999946594238 42.41600036621094,-7.698999881744385 43.10100173950195,-7.698999881744385 C44.444000244140625,-7.698999881744385 45.1150016784668,-6.914000034332275 45.1150016784668,-5.3429999351501465 C45.1150016784668,-5.3429999351501465 45.1150016784668,0.699999988079071 45.1150016784668,0.699999988079071 C45.1150016784668,0.699999988079071 47.0890007019043,0.699999988079071 47.0890007019043,0.699999988079071 C47.0890007019043,0.699999988079071 47.0890007019043,-5.605000019073486 47.0890007019043,-5.605000019073486 C47.0890007019043,-6.813000202178955 46.784000396728516,-7.767000198364258 46.17300033569336,-8.46500015258789 C45.5620002746582,-9.163000106811523 44.71900177001953,-9.51200008392334 43.64500045776367,-9.51200008392334 C42.91999816894531,-9.51200008392334 42.25899887084961,-9.333999633789062 41.6609992980957,-8.977999687194824 C41.0629997253418,-8.621999740600586 40.61000061035156,-8.13599967956543 40.30099868774414,-7.51800012588501 C40.30099868774414,-7.51800012588501 40.24100112915039,-9.310999870300293 40.24100112915039,-9.310999870300293 C40.24100112915039,-9.310999870300293 38.46900177001953,-9.310999870300293 38.46900177001953,-9.310999870300293 C38.46900177001953,-9.310999870300293 38.46900177001953,0.699999988079071 38.46900177001953,0.699999988079071z"></path></g><g opacity="1" transform="matrix(1,0,0,1,0,0)"><path fill="rgb(136,136,136)" fill-opacity="1" d=" M28.860000610351562,-4.295000076293945 C28.860000610351562,-5.302000045776367 29.125999450683594,-6.122000217437744 29.6560001373291,-6.752999782562256 C30.18600082397461,-7.383999824523926 30.874000549316406,-7.698999881744385 31.719999313354492,-7.698999881744385 C32.553001403808594,-7.698999881744385 33.23500061035156,-7.383999824523926 33.76499938964844,-6.752999782562256 C34.29499816894531,-6.122000217437744 34.560001373291016,-5.302000045776367 34.560001373291016,-4.295000076293945 C34.560001373291016,-3.3010001182556152 34.29499816894531,-2.489000082015991 33.76499938964844,-1.8580000400543213 C33.23500061035156,-1.2269999980926514 32.553001403808594,-0.9120000004768372 31.719999313354492,-0.9120000004768372 C30.886999130249023,-0.9120000004768372 30.202999114990234,-1.2269999980926514 29.666000366210938,-1.8580000400543213 C29.128999710083008,-2.489000082015991 28.860000610351562,-3.3010001182556152 28.860000610351562,-4.295000076293945z M26.88599967956543,-4.295000076293945 C26.88599967956543,-2.7780001163482666 27.34000015258789,-1.5329999923706055 28.246000289916992,-0.5590000152587891 C29.152000427246094,0.41499999165534973 30.309999465942383,0.9010000228881836 31.719999313354492,0.9010000228881836 C33.11600112915039,0.9010000228881836 34.27199935913086,0.41100001335144043 35.185001373291016,-0.5690000057220459 C36.097999572753906,-1.5490000247955322 36.55400085449219,-2.7909998893737793 36.55400085449219,-4.295000076293945 C36.55400085449219,-5.811999797821045 36.097999572753906,-7.061999797821045 35.185001373291016,-8.041999816894531 C34.27199935913086,-9.022000312805176 33.11600112915039,-9.51200008392334 31.719999313354492,-9.51200008392334 C30.309999465942383,-9.51200008392334 29.152000427246094,-9.022000312805176 28.246000289916992,-8.041999816894531 C27.34000015258789,-7.061999797821045 26.88599967956543,-5.811999797821045 26.88599967956543,-4.295000076293945z"></path></g><g opacity="1" transform="matrix(1,0,0,1,0,0)"><path fill="rgb(136,136,136)" fill-opacity="1" d=" M16.465999603271484,-4.295000076293945 C16.465999603271484,-2.818000078201294 16.913000106811523,-1.5829999446868896 17.805999755859375,-0.5889999866485596 C18.698999404907227,0.4050000011920929 19.81599998474121,0.9010000228881836 21.159000396728516,0.9010000228881836 C23.333999633789062,0.9010000228881836 24.79800033569336,-0.0989999994635582 25.549999237060547,-2.0999999046325684 C25.549999237060547,-2.0999999046325684 23.79800033569336,-2.805000066757202 23.79800033569336,-2.805000066757202 C23.22100067138672,-1.5429999828338623 22.340999603271484,-0.9120000004768372 21.159000396728516,-0.9120000004768372 C20.3799991607666,-0.9120000004768372 19.732999801635742,-1.2369999885559082 19.215999603271484,-1.8880000114440918 C18.698999404907227,-2.5390000343322754 18.440000534057617,-3.3420000076293945 18.440000534057617,-4.295000076293945 C18.440000534057617,-5.26200008392334 18.698999404907227,-6.071000099182129 19.215999603271484,-6.7220001220703125 C19.732999801635742,-7.373000144958496 20.3799991607666,-7.698999881744385 21.159000396728516,-7.698999881744385 C22.32699966430664,-7.698999881744385 23.207000732421875,-7.061999797821045 23.79800033569336,-5.785999774932861 C23.79800033569336,-5.785999774932861 25.549999237060547,-6.511000156402588 25.549999237060547,-6.511000156402588 C24.79800033569336,-8.51200008392334 23.333999633789062,-9.51200008392334 21.159000396728516,-9.51200008392334 C19.81599998474121,-9.51200008392334 18.698999404907227,-9.01200008392334 17.805999755859375,-8.01200008392334 C16.913000106811523,-7.01200008392334 16.465999603271484,-5.771999835968018 16.465999603271484,-4.295000076293945z"></path></g><g opacity="1" transform="matrix(1,0,0,1,0,0)"><path fill="rgb(136,136,136)" fill-opacity="1" d=" M12.288999557495117,0.699999988079071 C12.288999557495117,0.699999988079071 14.383999824523926,0.699999988079071 14.383999824523926,0.699999988079071 C14.383999824523926,0.699999988079071 14.383999824523926,-13.70199966430664 14.383999824523926,-13.70199966430664 C14.383999824523926,-13.70199966430664 12.288999557495117,-13.70199966430664 12.288999557495117,-13.70199966430664 C12.288999557495117,-13.70199966430664 12.288999557495117,0.699999988079071 12.288999557495117,0.699999988079071z"></path></g><g opacity="1" transform="matrix(1,0,0,1,0,0)"><path fill="rgb(136,136,136)" fill-opacity="1" d=" M-2.8359999656677246,-0.7910000085830688 C-2.3529999256134033,-0.2669999897480011 -1.722000002861023,0.1459999978542328 -0.9430000185966492,0.4480000138282776 C-0.164000004529953,0.75 0.6679999828338623,0.9010000228881836 1.5540000200271606,0.9010000228881836 C2.694999933242798,0.9010000228881836 3.621999979019165,0.6159999966621399 4.334000110626221,0.04500000178813934 C5.046000003814697,-0.5260000228881836 5.401000022888184,-1.2740000486373901 5.401000022888184,-2.2009999752044678 C5.401000022888184,-2.697999954223633 5.294000148773193,-3.13100004196167 5.078999996185303,-3.5 C4.863999843597412,-3.86899995803833 4.556000232696533,-4.164000034332275 4.1529998779296875,-4.386000156402588 C3.75,-4.607999801635742 3.3499999046325684,-4.7820000648498535 2.9539999961853027,-4.909999847412109 C2.558000087738037,-5.038000106811523 2.0850000381469727,-5.15500020980835 1.534000039100647,-5.26200008392334 C1.2649999856948853,-5.315999984741211 1.0449999570846558,-5.36299991607666 0.8700000047683716,-5.4029998779296875 C0.6949999928474426,-5.442999839782715 0.4830000102519989,-5.513999938964844 0.23499999940395355,-5.614999771118164 C-0.013000000268220901,-5.716000080108643 -0.20100000500679016,-5.853000164031982 -0.32899999618530273,-6.0279998779296875 C-0.4569999873638153,-6.203000068664551 -0.5199999809265137,-6.4039998054504395 -0.5199999809265137,-6.631999969482422 C-0.5199999809265137,-6.980999946594238 -0.3720000088214874,-7.263000011444092 -0.07699999958276749,-7.478000164031982 C0.21799999475479126,-7.692999839782715 0.628000020980835,-7.800000190734863 1.1519999504089355,-7.800000190734863 C2.2130000591278076,-7.800000190734863 3.2330000400543213,-7.431000232696533 4.2129998207092285,-6.691999912261963 C4.2129998207092285,-6.691999912261963 5.199999809265137,-8.081999778747559 5.199999809265137,-8.081999778747559 C4.005000114440918,-9.03499984741211 2.6559998989105225,-9.51200008392334 1.1519999504089355,-9.51200008392334 C0.10499999672174454,-9.51200008392334 -0.7480000257492065,-9.237000465393066 -1.406000018119812,-8.685999870300293 C-2.063999891281128,-8.135000228881836 -2.3929998874664307,-7.416999816894531 -2.3929998874664307,-6.531000137329102 C-2.3929998874664307,-6.127999782562256 -2.312999963760376,-5.76200008392334 -2.1519999504089355,-5.433000087738037 C-1.9910000562667847,-5.104000091552734 -1.7960000038146973,-4.839000225067139 -1.5679999589920044,-4.638000011444092 C-1.340000033378601,-4.436999797821045 -1.0470000505447388,-4.257999897003174 -0.6909999847412109,-4.104000091552734 C-0.33500000834465027,-3.950000047683716 -0.014000000432133675,-3.8329999446868896 0.2750000059604645,-3.752000093460083 C0.5640000104904175,-3.6710000038146973 0.8960000276565552,-3.5969998836517334 1.2719999551773071,-3.5299999713897705 C1.6349999904632568,-3.4489998817443848 1.909999966621399,-3.385999917984009 2.0980000495910645,-3.3389999866485596 C2.2860000133514404,-3.2920000553131104 2.510999917984009,-3.2139999866485596 2.7730000019073486,-3.1070001125335693 C3.0350000858306885,-3 3.2260000705718994,-2.865000009536743 3.3469998836517334,-2.7039999961853027 C3.4679999351501465,-2.5429999828338623 3.5280001163482666,-2.3550000190734863 3.5280001163482666,-2.140000104904175 C3.5280001163482666,-1.7369999885559082 3.3399999141693115,-1.4110000133514404 2.9639999866485596,-1.1629999876022339 C2.5880000591278076,-0.9150000214576721 2.0980000495910645,-0.7910000085830688 1.49399995803833,-0.7910000085830688 C0.17800000309944153,-0.7910000085830688 -0.9369999766349792,-1.246999979019165 -1.850000023841858,-2.1600000858306885 C-1.850000023841858,-2.1600000858306885 -2.8359999656677246,-0.7910000085830688 -2.8359999656677246,-0.7910000085830688z"></path></g><g opacity="1" transform="matrix(1,0,0,1,0,0)"><path fill="rgb(136,136,136)" fill-opacity="1" d=" M-13.092000007629395,-3.00600004196167 C-13.092000007629395,-1.784000039100647 -12.786999702453613,-0.828000009059906 -12.175999641418457,-0.13600000739097595 C-11.5649995803833,0.5559999942779541 -10.722000122070312,0.9010000228881836 -9.64799976348877,0.9010000228881836 C-8.92300033569336,0.9010000228881836 -8.26200008392334,0.7229999899864197 -7.664000034332275,0.367000013589859 C-7.065999984741211,0.010999999940395355 -6.61299991607666,-0.4690000116825104 -6.303999900817871,-1.0729999542236328 C-6.303999900817871,-1.0729999542236328 -6.24399995803833,0.699999988079071 -6.24399995803833,0.699999988079071 C-6.24399995803833,0.699999988079071 -4.4720001220703125,0.699999988079071 -4.4720001220703125,0.699999988079071 C-4.4720001220703125,0.699999988079071 -4.4720001220703125,-9.310999870300293 -4.4720001220703125,-9.310999870300293 C-4.4720001220703125,-9.310999870300293 -6.445000171661377,-9.310999870300293 -6.445000171661377,-9.310999870300293 C-6.445000171661377,-9.310999870300293 -6.445000171661377,-5.3429999351501465 -6.445000171661377,-5.3429999351501465 C-6.445000171661377,-4.375999927520752 -6.4720001220703125,-3.7249999046325684 -6.526000022888184,-3.3889999389648438 C-6.673999786376953,-2.609999895095825 -6.968999862670898,-2.002000093460083 -7.4120001792907715,-1.565999984741211 C-7.855000019073486,-1.1299999952316284 -8.418999671936035,-0.9120000004768372 -9.104000091552734,-0.9120000004768372 C-10.446999549865723,-0.9120000004768372 -11.118000030517578,-1.6970000267028809 -11.118000030517578,-3.2679998874664307 C-11.118000030517578,-3.2679998874664307 -11.118000030517578,-9.310999870300293 -11.118000030517578,-9.310999870300293 C-11.118000030517578,-9.310999870300293 -13.092000007629395,-9.310999870300293 -13.092000007629395,-9.310999870300293 C-13.092000007629395,-9.310999870300293 -13.092000007629395,-3.00600004196167 -13.092000007629395,-3.00600004196167z"></path></g><g opacity="1" transform="matrix(1,0,0,1,0,0)"><path fill="rgb(136,136,136)" fill-opacity="1" d=" M-23.89900016784668,0.699999988079071 C-23.89900016784668,0.699999988079071 -21.64299964904785,0.699999988079071 -21.64299964904785,0.699999988079071 C-21.64299964904785,0.699999988079071 -19.04400062561035,-3.187999963760376 -19.04400062561035,-3.187999963760376 C-19.04400062561035,-3.187999963760376 -16.465999603271484,0.699999988079071 -16.465999603271484,0.699999988079071 C-16.465999603271484,0.699999988079071 -14.210000038146973,0.699999988079071 -14.210000038146973,0.699999988079071 C-14.210000038146973,0.699999988079071 -17.79599952697754,-4.335999965667725 -17.79599952697754,-4.335999965667725 C-17.79599952697754,-4.335999965667725 -14.291000366210938,-9.310999870300293 -14.291000366210938,-9.310999870300293 C-14.291000366210938,-9.310999870300293 -16.547000885009766,-9.310999870300293 -16.547000885009766,-9.310999870300293 C-16.547000885009766,-9.310999870300293 -19.065000534057617,-5.52400016784668 -19.065000534057617,-5.52400016784668 C-19.065000534057617,-5.52400016784668 -21.562000274658203,-9.310999870300293 -21.562000274658203,-9.310999870300293 C-21.562000274658203,-9.310999870300293 -23.81800079345703,-9.310999870300293 -23.81800079345703,-9.310999870300293 C-23.81800079345703,-9.310999870300293 -20.312999725341797,-4.335999965667725 -20.312999725341797,-4.335999965667725 C-20.312999725341797,-4.335999965667725 -23.89900016784668,0.699999988079071 -23.89900016784668,0.699999988079071z"></path></g><g opacity="1" transform="matrix(1,0,0,1,0,0)"><path fill="rgb(136,136,136)" fill-opacity="1" d=" M-31.798999786376953,-5.120999813079834 C-31.67799949645996,-5.927000045776367 -31.375999450683594,-6.565000057220459 -30.89299964904785,-7.034999847412109 C-30.40999984741211,-7.505000114440918 -29.80500030517578,-7.739999771118164 -29.079999923706055,-7.739999771118164 C-28.354999542236328,-7.739999771118164 -27.750999450683594,-7.501999855041504 -27.26799964904785,-7.025000095367432 C-26.78499984741211,-6.547999858856201 -26.503000259399414,-5.913000106811523 -26.422000885009766,-5.120999813079834 C-26.422000885009766,-5.120999813079834 -31.798999786376953,-5.120999813079834 -31.798999786376953,-5.120999813079834z M-33.81399917602539,-4.295000076293945 C-33.81399917602539,-2.7909998893737793 -33.356998443603516,-1.5490000247955322 -32.444000244140625,-0.5690000057220459 C-31.5310001373291,0.41100001335144043 -30.375999450683594,0.9010000228881836 -28.979999542236328,0.9010000228881836 C-27.020000457763672,0.9010000228881836 -25.576000213623047,0.0820000022649765 -24.64900016784668,-1.555999994277954 C-24.64900016784668,-1.555999994277954 -26.200000762939453,-2.4630000591278076 -26.200000762939453,-2.4630000591278076 C-26.93899917602539,-1.4019999504089355 -27.864999771118164,-0.8709999918937683 -28.979999542236328,-0.8709999918937683 C-29.7189998626709,-0.8709999918937683 -30.343000411987305,-1.1200000047683716 -30.85300064086914,-1.6169999837875366 C-31.363000869750977,-2.114000082015991 -31.67799949645996,-2.7780001163482666 -31.798999786376953,-3.6110000610351562 C-31.798999786376953,-3.6110000610351562 -24.408000946044922,-3.6110000610351562 -24.408000946044922,-3.6110000610351562 C-24.368000030517578,-3.8529999256134033 -24.347000122070312,-4.126999855041504 -24.347000122070312,-4.435999870300293 C-24.347000122070312,-5.900000095367432 -24.792999267578125,-7.111999988555908 -25.68600082397461,-8.071999549865723 C-26.57900047302246,-9.031999588012695 -27.709999084472656,-9.51200008392334 -29.079999923706055,-9.51200008392334 C-30.46299934387207,-9.51200008392334 -31.597999572753906,-9.022000312805176 -32.48400115966797,-8.041999816894531 C-33.369998931884766,-7.061999797821045 -33.81399917602539,-5.811999797821045 -33.81399917602539,-4.295000076293945z"></path></g><g opacity="1" transform="matrix(1,0,0,1,0,0)"><path fill="rgb(136,136,136)" fill-opacity="1" d=" M-47.191001892089844,0.699999988079071 C-47.191001892089844,0.699999988079071 -45.09600067138672,0.699999988079071 -45.09600067138672,0.699999988079071 C-45.09600067138672,0.699999988079071 -45.09600067138672,-10.640000343322754 -45.09600067138672,-10.640000343322754 C-45.09600067138672,-10.640000343322754 -38.3489990234375,0.699999988079071 -38.3489990234375,0.699999988079071 C-38.3489990234375,0.699999988079071 -35.81100082397461,0.699999988079071 -35.81100082397461,0.699999988079071 C-35.81100082397461,0.699999988079071 -35.81100082397461,-13.70199966430664 -35.81100082397461,-13.70199966430664 C-35.81100082397461,-13.70199966430664 -37.92599868774414,-13.70199966430664 -37.92599868774414,-13.70199966430664 C-37.92599868774414,-13.70199966430664 -37.92599868774414,-2.4019999504089355 -37.92599868774414,-2.4019999504089355 C-37.92599868774414,-2.4019999504089355 -44.65299987792969,-13.70199966430664 -44.65299987792969,-13.70199966430664 C-44.65299987792969,-13.70199966430664 -47.191001892089844,-13.70199966430664 -47.191001892089844,-13.70199966430664 C-47.191001892089844,-13.70199966430664 -47.191001892089844,0.699999988079071 -47.191001892089844,0.699999988079071z"></path></g></g></g></svg>